<mxfile host="65bd71144e">
    <diagram id="p-Txsvb8DycO-Tz0CJlA" name="페이지-1">
        <mxGraphModel dx="1627" dy="930" grid="1" gridSize="10" guides="1" tooltips="1" connect="1" arrows="1" fold="1" page="1" pageScale="1" pageWidth="827" pageHeight="1169" math="0" shadow="0">
            <root>
                <mxCell id="0"/>
                <mxCell id="1" parent="0"/>
                <mxCell id="103" value="" style="rounded=0;whiteSpace=wrap;html=1;" vertex="1" parent="1">
                    <mxGeometry x="10" y="90" width="660" height="680" as="geometry"/>
                </mxCell>
                <mxCell id="54" value="Spring&lt;br&gt;(Back-End)" style="shape=umlLifeline;perimeter=lifelinePerimeter;whiteSpace=wrap;html=1;container=1;collapsible=0;recursiveResize=0;outlineConnect=0;" parent="1" vertex="1">
                    <mxGeometry x="364" y="100" width="100" height="660" as="geometry"/>
                </mxCell>
                <mxCell id="55" value="" style="html=1;points=[];perimeter=orthogonalPerimeter;fillColor=#808080;" parent="54" vertex="1">
                    <mxGeometry x="45" y="90" width="10" height="90" as="geometry"/>
                </mxCell>
                <mxCell id="74" value="" style="html=1;points=[];perimeter=orthogonalPerimeter;fillColor=#808080;" parent="54" vertex="1">
                    <mxGeometry x="45" y="425" width="10" height="40" as="geometry"/>
                </mxCell>
                <mxCell id="97" value="" style="html=1;points=[];perimeter=orthogonalPerimeter;fillColor=#808080;" parent="54" vertex="1">
                    <mxGeometry x="45" y="520" width="10" height="120" as="geometry"/>
                </mxCell>
                <mxCell id="102" value="DB 저장" style="edgeStyle=orthogonalEdgeStyle;html=1;align=left;spacingLeft=2;endArrow=block;rounded=0;entryX=1.027;entryY=0.052;exitX=1.027;exitY=0.975;exitDx=0;exitDy=0;exitPerimeter=0;entryDx=0;entryDy=0;entryPerimeter=0;" parent="54" edge="1">
                    <mxGeometry x="-0.2697" relative="1" as="geometry">
                        <mxPoint x="55" y="590.005" as="sourcePoint"/>
                        <Array as="points">
                            <mxPoint x="76" y="590"/>
                            <mxPoint x="76" y="612"/>
                        </Array>
                        <mxPoint x="55" y="612.1620000000001" as="targetPoint"/>
                        <mxPoint as="offset"/>
                    </mxGeometry>
                </mxCell>
                <mxCell id="96" value="Approve 응답" style="html=1;verticalAlign=bottom;endArrow=open;dashed=1;endSize=8;entryX=0.929;entryY=0.959;entryDx=0;entryDy=0;entryPerimeter=0;exitX=-0.24;exitY=0.802;exitDx=0;exitDy=0;exitPerimeter=0;" parent="54" edge="1">
                    <mxGeometry relative="1" as="geometry">
                        <mxPoint x="44.999999999999886" y="630.5419999999999" as="sourcePoint"/>
                        <mxPoint x="-147.31000000000003" y="630.0049999999999" as="targetPoint"/>
                    </mxGeometry>
                </mxCell>
                <mxCell id="56" value="iOS&lt;br&gt;(Front-End)" style="shape=umlLifeline;perimeter=lifelinePerimeter;whiteSpace=wrap;html=1;container=1;collapsible=0;recursiveResize=0;outlineConnect=0;" parent="1" vertex="1">
                    <mxGeometry x="160" y="100" width="100" height="660" as="geometry"/>
                </mxCell>
                <mxCell id="57" value="" style="html=1;points=[];perimeter=orthogonalPerimeter;fillColor=#0000CC;" parent="56" vertex="1">
                    <mxGeometry x="45" y="80" width="10" height="120" as="geometry"/>
                </mxCell>
                <mxCell id="72" value="" style="html=1;points=[];perimeter=orthogonalPerimeter;fillColor=#007FFF;" parent="56" vertex="1">
                    <mxGeometry x="45" y="215" width="10" height="255" as="geometry"/>
                </mxCell>
                <mxCell id="73" value="Safari로 이동 ( OpenURL )" style="edgeStyle=orthogonalEdgeStyle;html=1;align=left;spacingLeft=2;endArrow=block;rounded=0;entryX=0.996;entryY=0.018;exitX=1.158;exitY=0.958;exitDx=0;exitDy=0;exitPerimeter=0;entryDx=0;entryDy=0;entryPerimeter=0;" parent="56" source="57" target="72" edge="1">
                    <mxGeometry x="-0.2842" relative="1" as="geometry">
                        <mxPoint x="70" y="190" as="sourcePoint"/>
                        <Array as="points">
                            <mxPoint x="70" y="195"/>
                            <mxPoint x="70" y="219"/>
                            <mxPoint x="55" y="219"/>
                        </Array>
                        <mxPoint as="offset"/>
                    </mxGeometry>
                </mxCell>
                <mxCell id="75" value="" style="html=1;points=[];perimeter=orthogonalPerimeter;fillColor=#FFD752;" parent="56" vertex="1">
                    <mxGeometry x="50" y="251" width="10" height="59" as="geometry"/>
                </mxCell>
                <mxCell id="78" value="KakaoTalk 또는 KakaoPay로 이동 ( DeepLink )" style="edgeStyle=orthogonalEdgeStyle;html=1;align=left;spacingLeft=2;endArrow=block;rounded=0;entryX=0.996;entryY=0.018;entryDx=0;entryDy=0;entryPerimeter=0;" parent="56" edge="1">
                    <mxGeometry x="-0.2842" relative="1" as="geometry">
                        <mxPoint x="60" y="243" as="sourcePoint"/>
                        <Array as="points">
                            <mxPoint x="55" y="243"/>
                            <mxPoint x="75" y="243"/>
                            <mxPoint x="75" y="266"/>
                        </Array>
                        <mxPoint x="59.999999999999915" y="266.01000000000005" as="targetPoint"/>
                        <mxPoint as="offset"/>
                    </mxGeometry>
                </mxCell>
                <mxCell id="79" value="결제 처리" style="html=1;verticalAlign=bottom;startArrow=oval;startFill=1;endArrow=block;startSize=8;entryX=-0.182;entryY=0.291;entryDx=0;entryDy=0;entryPerimeter=0;" parent="56" edge="1">
                    <mxGeometry width="60" relative="1" as="geometry">
                        <mxPoint x="61" y="288" as="sourcePoint"/>
                        <mxPoint x="444.18000000000006" y="286.73" as="targetPoint"/>
                    </mxGeometry>
                </mxCell>
                <mxCell id="82" value="Kakao 결제 완료 버튼 누르기" style="edgeStyle=orthogonalEdgeStyle;html=1;align=left;spacingLeft=2;endArrow=block;rounded=0;entryX=0.996;entryY=0.018;exitX=1.158;exitY=0.958;exitDx=0;exitDy=0;exitPerimeter=0;entryDx=0;entryDy=0;entryPerimeter=0;" parent="56" edge="1">
                    <mxGeometry x="-0.2842" relative="1" as="geometry">
                        <mxPoint x="56.61999999999992" y="319.99999999999994" as="sourcePoint"/>
                        <Array as="points">
                            <mxPoint x="70.03999999999999" y="320.04"/>
                            <mxPoint x="70.03999999999999" y="343.04"/>
                        </Array>
                        <mxPoint x="55.00000000000003" y="343.01000000000005" as="targetPoint"/>
                        <mxPoint as="offset"/>
                    </mxGeometry>
                </mxCell>
                <mxCell id="89" value="" style="html=1;points=[];perimeter=orthogonalPerimeter;fillColor=#0000CC;" parent="56" vertex="1">
                    <mxGeometry x="45" y="484" width="10" height="166" as="geometry"/>
                </mxCell>
                <mxCell id="91" value="Strada로 이동 ( DeepLink&amp;nbsp;)" style="edgeStyle=orthogonalEdgeStyle;html=1;align=left;spacingLeft=2;endArrow=block;rounded=0;entryX=1.027;entryY=0.052;exitX=1.027;exitY=0.975;exitDx=0;exitDy=0;exitPerimeter=0;entryDx=0;entryDy=0;entryPerimeter=0;" parent="56" target="89" edge="1">
                    <mxGeometry x="0.3667" relative="1" as="geometry">
                        <mxPoint x="55.26999999999998" y="467.875" as="sourcePoint"/>
                        <Array as="points">
                            <mxPoint x="70" y="468"/>
                            <mxPoint x="70" y="493"/>
                            <mxPoint x="55" y="493"/>
                        </Array>
                        <mxPoint x="55" y="498.01" as="targetPoint"/>
                        <mxPoint as="offset"/>
                    </mxGeometry>
                </mxCell>
                <mxCell id="90" value="Strada" style="text;align=center;fontStyle=1;fontColor=white;verticalAlign=middle;spacingLeft=3;spacingRight=3;strokeColor=none;rotatable=0;points=[[0,0.5],[1,0.5]];portConstraint=eastwest;fillColor=#0000CC;" parent="56" vertex="1">
                    <mxGeometry x="-30" y="485" width="50" height="26" as="geometry"/>
                </mxCell>
                <mxCell id="61" value="Kakao API&lt;br&gt;(kapi)" style="shape=umlLifeline;perimeter=lifelinePerimeter;whiteSpace=wrap;html=1;container=1;collapsible=0;recursiveResize=0;outlineConnect=0;" parent="1" vertex="1">
                    <mxGeometry x="560" y="100" width="100" height="660" as="geometry"/>
                </mxCell>
                <mxCell id="62" value="" style="html=1;points=[];perimeter=orthogonalPerimeter;" parent="61" vertex="1">
                    <mxGeometry x="45" y="110" width="10" height="40" as="geometry"/>
                </mxCell>
                <mxCell id="80" value="" style="html=1;points=[];perimeter=orthogonalPerimeter;" parent="61" vertex="1">
                    <mxGeometry x="45" y="280" width="10" height="20" as="geometry"/>
                </mxCell>
                <mxCell id="84" value="" style="html=1;points=[];perimeter=orthogonalPerimeter;" parent="61" vertex="1">
                    <mxGeometry x="45" y="360" width="10" height="50" as="geometry"/>
                </mxCell>
                <mxCell id="98" value="Approve 요청" style="html=1;verticalAlign=bottom;startArrow=oval;startFill=1;endArrow=block;startSize=8;entryX=-0.044;entryY=0.185;entryDx=0;entryDy=0;entryPerimeter=0;" parent="61" edge="1">
                    <mxGeometry width="60" relative="1" as="geometry">
                        <mxPoint x="-140" y="541" as="sourcePoint"/>
                        <mxPoint x="46.819999999999936" y="540.5549999999998" as="targetPoint"/>
                    </mxGeometry>
                </mxCell>
                <mxCell id="99" value="" style="html=1;points=[];perimeter=orthogonalPerimeter;" parent="61" vertex="1">
                    <mxGeometry x="45" y="530" width="10" height="50" as="geometry"/>
                </mxCell>
                <mxCell id="64" value="Strada" style="text;align=center;fontStyle=1;fontColor=white;erticalAlign=middle;spacingLeft=3;spacingRight=3;strokeColor=none;rotatable=0;points=[[0,0.5],[1,0.5]];portConstraint=eastwest;fillColor=#0000CC;" parent="1" vertex="1">
                    <mxGeometry x="130" y="180" width="50" height="26" as="geometry"/>
                </mxCell>
                <mxCell id="65" value="ready 요청" style="html=1;verticalAlign=bottom;startArrow=oval;startFill=1;endArrow=block;startSize=8;entryX=0.063;entryY=0.176;entryDx=0;entryDy=0;entryPerimeter=0;exitX=0.996;exitY=0.292;exitDx=0;exitDy=0;exitPerimeter=0;" parent="1" source="55" target="62" edge="1">
                    <mxGeometry width="60" relative="1" as="geometry">
                        <mxPoint x="420" y="215" as="sourcePoint"/>
                        <mxPoint x="600" y="216" as="targetPoint"/>
                    </mxGeometry>
                </mxCell>
                <mxCell id="63" value="ready 요청" style="html=1;verticalAlign=bottom;startArrow=oval;startFill=1;endArrow=block;startSize=8;entryX=0.058;entryY=0.083;entryDx=0;entryDy=0;entryPerimeter=0;exitX=1.012;exitY=0.158;exitDx=0;exitDy=0;exitPerimeter=0;" parent="1" source="57" target="55" edge="1">
                    <mxGeometry width="60" relative="1" as="geometry">
                        <mxPoint x="220" y="200" as="sourcePoint"/>
                        <mxPoint x="275" y="200" as="targetPoint"/>
                    </mxGeometry>
                </mxCell>
                <mxCell id="70" value="tid &amp;amp; info" style="html=1;verticalAlign=bottom;endArrow=open;dashed=1;endSize=8;entryX=0.858;entryY=0.375;entryDx=0;entryDy=0;entryPerimeter=0;exitX=0.058;exitY=0.375;exitDx=0;exitDy=0;exitPerimeter=0;" parent="1" edge="1">
                    <mxGeometry relative="1" as="geometry">
                        <mxPoint x="605.5799999999999" y="245" as="sourcePoint"/>
                        <mxPoint x="417.5799999999999" y="245" as="targetPoint"/>
                    </mxGeometry>
                </mxCell>
                <mxCell id="71" value="tid &amp;amp; info" style="html=1;verticalAlign=bottom;endArrow=open;dashed=1;endSize=8;entryX=0.858;entryY=0.375;entryDx=0;entryDy=0;entryPerimeter=0;exitX=0.058;exitY=0.375;exitDx=0;exitDy=0;exitPerimeter=0;" parent="1" edge="1">
                    <mxGeometry relative="1" as="geometry">
                        <mxPoint x="402.9999999999999" y="270" as="sourcePoint"/>
                        <mxPoint x="214.99999999999991" y="270" as="targetPoint"/>
                    </mxGeometry>
                </mxCell>
                <mxCell id="83" value="상태 체크" style="html=1;verticalAlign=bottom;startArrow=oval;startFill=1;endArrow=block;startSize=8;exitX=1.074;exitY=0.659;exitDx=0;exitDy=0;exitPerimeter=0;entryX=-0.003;entryY=0.214;entryDx=0;entryDy=0;entryPerimeter=0;" parent="1" edge="1">
                    <mxGeometry width="60" relative="1" as="geometry">
                        <mxPoint x="215.74" y="465.865" as="sourcePoint"/>
                        <mxPoint x="604.97" y="465.41999999999996" as="targetPoint"/>
                    </mxGeometry>
                </mxCell>
                <mxCell id="85" value="pg_token을 포함한 사전에 정의된 주소로 Redirect 처리" style="html=1;verticalAlign=bottom;endArrow=open;dashed=1;endSize=8;exitX=-0.003;exitY=0.864;exitDx=0;exitDy=0;exitPerimeter=0;entryX=0.972;entryY=0.744;entryDx=0;entryDy=0;entryPerimeter=0;" parent="1" edge="1">
                    <mxGeometry relative="1" as="geometry">
                        <mxPoint x="604.97" y="498.91999999999996" as="sourcePoint"/>
                        <mxPoint x="214.72000000000003" y="499.84000000000003" as="targetPoint"/>
                    </mxGeometry>
                </mxCell>
                <mxCell id="86" value="App Scheme Redirect 요청" style="html=1;verticalAlign=bottom;startArrow=oval;startFill=1;endArrow=block;startSize=8;exitX=1.074;exitY=0.825;exitDx=0;exitDy=0;exitPerimeter=0;entryX=-0.044;entryY=0.185;entryDx=0;entryDy=0;entryPerimeter=0;" parent="1" edge="1">
                    <mxGeometry width="60" relative="1" as="geometry">
                        <mxPoint x="215.74" y="530.875" as="sourcePoint"/>
                        <mxPoint x="408.56000000000006" y="531.435" as="targetPoint"/>
                    </mxGeometry>
                </mxCell>
                <mxCell id="88" value="App Scheme Redirect 처리" style="html=1;verticalAlign=bottom;endArrow=open;dashed=1;endSize=8;entryX=0.929;entryY=0.959;entryDx=0;entryDy=0;entryPerimeter=0;exitX=-0.24;exitY=0.802;exitDx=0;exitDy=0;exitPerimeter=0;" parent="1" edge="1">
                    <mxGeometry relative="1" as="geometry">
                        <mxPoint x="406.5999999999999" y="558.902" as="sourcePoint"/>
                        <mxPoint x="214.29000000000008" y="558.365" as="targetPoint"/>
                    </mxGeometry>
                </mxCell>
                <mxCell id="92" value="KakaoTalk 또는 KakaoPay" style="text;align=center;fontStyle=1;fontColor=black;verticalAlign=middle;spacingLeft=3;spacingRight=3;strokeColor=none;rotatable=0;points=[[0,0.5],[1,0.5]];portConstraint=eastwest;fillColor=#FFD752;" parent="1" vertex="1">
                    <mxGeometry x="20" y="351" width="160" height="26" as="geometry"/>
                </mxCell>
                <mxCell id="77" value="Safari" style="text;align=center;fontStyle=1;verticalAlign=middle;spacingLeft=3;spacingRight=3;strokeColor=none;rotatable=0;points=[[0,0.5],[1,0.5]];portConstraint=eastwest;fillColor=#007FFF;" parent="1" vertex="1">
                    <mxGeometry x="130" y="315" width="50" height="26" as="geometry"/>
                </mxCell>
                <mxCell id="95" value="approve 요청" style="html=1;verticalAlign=bottom;startArrow=oval;startFill=1;endArrow=block;startSize=8;exitX=1.074;exitY=0.825;exitDx=0;exitDy=0;exitPerimeter=0;entryX=-0.044;entryY=0.185;entryDx=0;entryDy=0;entryPerimeter=0;" parent="1" edge="1">
                    <mxGeometry width="60" relative="1" as="geometry">
                        <mxPoint x="216" y="629.9949999999999" as="sourcePoint"/>
                        <mxPoint x="408.81999999999994" y="630.5549999999998" as="targetPoint"/>
                    </mxGeometry>
                </mxCell>
                <mxCell id="101" value="tid &amp;amp; card 또는 money를 포함한 info" style="html=1;verticalAlign=bottom;endArrow=open;dashed=1;endSize=8;exitX=-0.24;exitY=0.802;exitDx=0;exitDy=0;exitPerimeter=0;" parent="1" edge="1">
                    <mxGeometry relative="1" as="geometry">
                        <mxPoint x="605.31" y="670.0919999999999" as="sourcePoint"/>
                        <mxPoint x="419" y="669.55" as="targetPoint"/>
                    </mxGeometry>
                </mxCell>
            </root>
        </mxGraphModel>
    </diagram>
</mxfile>